<?xml version="1.0" encoding="UTF-8" standalone="no"?>
<!-- Generator: Adobe Illustrator 18.0.0, SVG Export Plug-In . SVG Version: 6.00 Build 0)  -->

<svg
   version="1.1"
   id="Layer_2_1_"
   x="0px"
   y="0px"
   viewBox="0 0 699.99998 700.00001"
   enable-background="new 0 0 841.9 595.3"
   xml:space="preserve"
   sodipodi:docname="verifai-example-java-logo.svg"
   width="700"
   height="700"
   inkscape:export-filename="/home/jeroen.oomkes/Downloads/flutter-icon2.png"
   inkscape:export-xdpi="43.885715"
   inkscape:export-ydpi="43.885715"
   inkscape:version="1.1.2 (76b9e6a115, 2022-02-25)"
   xmlns:inkscape="http://www.inkscape.org/namespaces/inkscape"
   xmlns:sodipodi="http://sodipodi.sourceforge.net/DTD/sodipodi-0.dtd"
   xmlns="http://www.w3.org/2000/svg"
   xmlns:svg="http://www.w3.org/2000/svg"
   xmlns:rdf="http://www.w3.org/1999/02/22-rdf-syntax-ns#"
   xmlns:cc="http://creativecommons.org/ns#"
   xmlns:dc="http://purl.org/dc/elements/1.1/"><metadata
   id="metadata50"><rdf:RDF><cc:Work
       rdf:about=""><dc:format>image/svg+xml</dc:format><dc:type
         rdf:resource="http://purl.org/dc/dcmitype/StillImage" /></cc:Work></rdf:RDF></metadata><defs
   id="defs171"><path
     id="A"
     d="M959.4 500L679.8 779.7l279.6 279.7H639.9L360.2 779.7 639.9 500h319.5zM639.9 20.7L120.6 540l159.8 159.8 679-679.1H639.9z" /><path
     id="C"
     d="M959.4 500L679.8 779.7l279.6 279.7H639.9L360.2 779.7 639.9 500h319.5zM639.9 20.7L120.6 540l159.8 159.8 679-679.1H639.9z" /><path
     id="E"
     d="M959.4 500L679.8 779.7l279.6 279.7H639.9L360.2 779.7 639.9 500h319.5zM639.9 20.7L120.6 540l159.8 159.8 679-679.1H639.9z" /><path
     id="G"
     d="M959.4 500L679.8 779.7l279.6 279.7H639.9L360.2 779.7 639.9 500h319.5zM639.9 20.7L120.6 540l159.8 159.8 679-679.1H639.9z" /><path
     id="J"
     d="M959.4 500L679.8 779.7l279.6 279.7H639.9L360.2 779.7 639.9 500h319.5zM639.9 20.7L120.6 540l159.8 159.8 679-679.1H639.9z" /><inkscape:path-effect
     effect="fill_between_many"
     method="originald"
     linkedpaths="#path4631,0,1"
     id="path-effect7655" /><inkscape:path-effect
     effect="fill_between_many"
     method="originald"
     linkedpaths="#path4631,0,1"
     id="path-effect7935" /><style
     id="style865">.a{fill:#ff576d;}</style></defs><sodipodi:namedview
   id="namedview169"
   pagecolor="#ff576d"
   bordercolor="#666666"
   borderopacity="1.0"
   inkscape:pageshadow="2"
   inkscape:pageopacity="1"
   inkscape:pagecheckerboard="true"
   showgrid="false"
   width="600px"
   inkscape:zoom="0.46501204"
   inkscape:cx="-243.00446"
   inkscape:cy="467.72982"
   inkscape:window-width="1853"
   inkscape:window-height="1016"
   inkscape:window-x="67"
   inkscape:window-y="27"
   inkscape:window-maximized="1"
   inkscape:current-layer="Layer_2_1_" />

<path
   inkscape:original-d="M 95.596794,-538.46056"
   inkscape:path-effect="#path-effect7935"
   d="M 95.596794,-538.46056"
   id="path7937"
   style="fill:#ffffff" /><path
   id="path869"
   style="fill:#ffffff;stroke-width:1.61051"
   class="a"
   d="m 179.38115,170 c -7.88076,0 -10.79681,3.3491 -8.74609,10.04883 l 25.51953,108.33594 a 96.800003,96.800003 0 0 0 -6.80664,35.00781 96.800003,96.800003 0 0 0 31.9414,71.6875 l 17.08399,72.52539 c 1.15957,6.11994 4.80487,9.17969 10.93555,9.17969 h 74.4375 c 5.52941,0 9.02417,-3.05975 10.48437,-9.17969 l 17.16211,-72.91016 a 96.800003,96.800003 0 0 0 31.55664,-71.30273 96.800003,96.800003 0 0 0 -6.55078,-34.92188 L 401.92021,180.04883 C 403.40188,173.3491 400.50441,170 393.2249,170 h -41.06836 c -5.84615,0 -9.32481,3.05975 -10.48437,9.17969 l -12.96485,57.29687 a 96.800003,96.800003 0 0 0 -42.55859,-9.88476 96.800003,96.800003 0 0 0 -42.24219,9.85547 L 230.94951,179.17969 C 229.78994,173.05975 226.29029,170 220.44951,170 Z m 77.74805,90.90235 h 58.22265 c 2.3751,0 3.55611,1.24705 3.54297,3.74023 v 12.0918 c 0,2.49318 -1.18742,3.74023 -3.5625,3.74023 h -37.20703 c -1.42155,0 -2.13281,0.6546 -2.13281,1.9668 v 37.94922 c 0,1.3122 0.70907,1.96875 2.13281,1.96875 h 23.44141 c 2.48881,0 3.73437,1.24705 3.73437,3.74023 v 11.76367 c 0,2.49318 -1.24556,3.74024 -3.73437,3.74024 h -23.44141 c -1.42155,0 -2.13281,0.65459 -2.13281,1.96679 v 20.75977 c 0,1.3122 0.71126,1.96875 2.13281,1.96875 H 315.346 c 2.37508,0 3.5625,1.2451 3.5625,3.73828 v 12.10547 c 0,2.49318 -1.18742,3.74023 -3.5625,3.74023 h -58.2168 c -2.48662,0 -3.74024,-1.24705 -3.74024,-3.74023 v -117.5 c 0,-2.49318 1.25362,-3.74023 3.74024,-3.74023 z" /><g
   id="g11657"
   transform="matrix(0.71153967,0,0,0.71153967,348.38528,283.98473)"
   style="fill:#ffffff"><path
     d="m 82.554,267.473 c 0,0 -13.198,7.675 9.393,10.272 27.369,3.122 41.356,2.675 71.517,-3.034 0,0 7.93,4.972 19.003,9.279 -67.611,28.977 -153.019,-1.679 -99.913,-16.517 m -8.262,-37.814 c 0,0 -14.803,10.958 7.805,13.296 29.236,3.016 52.324,3.263 92.276,-4.43 0,0 5.526,5.602 14.215,8.666 -81.747,23.904 -172.798,1.885 -114.296,-17.532"
     fill="#5382a1"
     id="path11636"
     style="fill:#ffffff" /><path
     d="m 143.942,165.515 c 16.66,19.18 -4.377,36.44 -4.377,36.44 0,0 42.301,-21.837 22.874,-49.183 -18.144,-25.5 -32.059,-38.172 43.268,-81.858 0,0 -118.238,29.53 -61.765,94.6"
     fill="#e76f00"
     id="path11638"
     style="fill:#ffffff" /><path
     d="m 233.364,295.442 c 0,0 9.767,8.047 -10.757,14.273 -39.026,11.823 -162.432,15.393 -196.714,0.471 -12.323,-5.36 10.787,-12.8 18.056,-14.362 7.581,-1.644 11.914,-1.337 11.914,-1.337 -13.705,-9.655 -88.583,18.957 -38.034,27.15 137.853,22.356 251.292,-10.066 215.535,-26.195 M 88.9,190.48 c 0,0 -62.771,14.91 -22.228,20.323 17.118,2.292 51.243,1.774 83.03,-0.89 25.978,-2.19 52.063,-6.85 52.063,-6.85 0,0 -9.16,3.923 -15.787,8.448 -63.744,16.765 -186.886,8.966 -151.435,-8.183 29.981,-14.492 54.358,-12.848 54.358,-12.848 m 112.605,62.942 c 64.8,-33.672 34.839,-66.03 13.927,-61.67 -5.126,1.066 -7.411,1.99 -7.411,1.99 0,0 1.903,-2.98 5.537,-4.27 41.37,-14.545 73.187,42.897 -13.355,65.647 0,0.001 1.003,-0.895 1.302,-1.697"
     fill="#5382a1"
     id="path11640"
     style="fill:#ffffff" /><path
     d="m 162.439,0.371 c 0,0 35.887,35.9 -34.037,91.101 -56.071,44.282 -12.786,69.53 -0.023,98.377 -32.73,-29.53 -56.75,-55.526 -40.635,-79.72 C 111.395,74.612 176.918,57.393 162.439,0.37"
     fill="#e76f00"
     id="path11642"
     style="fill:#ffffff" /><path
     d="m 95.268,344.665 c 62.199,3.982 157.712,-2.209 159.974,-31.64 0,0 -4.348,11.158 -51.404,20.018 -53.088,9.99 -118.564,8.824 -157.399,2.421 10e-4,0 7.95,6.58 48.83,9.201"
     fill="#5382a1"
     id="path11644"
     style="fill:#ffffff" /></g></svg>
